<?xml version="1.0" encoding="iso-8859-1"?>
<!-- Generator: Adobe Illustrator 19.0.0, SVG Export Plug-In . SVG Version: 6.00 Build 0)  -->
<svg version="1.1" id="Capa_1" xmlns="http://www.w3.org/2000/svg" xmlns:xlink="http://www.w3.org/1999/xlink" x="0px" y="0px"
	 viewBox="0 0 481.255 481.255" style="enable-background:new 0 0 481.255 481.255;" xml:space="preserve">
<path style="fill:#7C84E8;" d="M211.659,269.599l16,203.648L473.243,8.015L8.011,253.599L211.659,269.599z"/>
<path style="fill:#231F20;" d="M227.659,481.247c-0.537-0.003-1.073-0.056-1.6-0.16c-3.485-0.718-6.077-3.653-6.36-7.2
	l-15.48-196.848L7.387,261.599c-4.405-0.339-7.702-4.185-7.363-8.59c0.211-2.743,1.816-5.185,4.251-6.466l465.232-245.6
	c3.903-2.07,8.746-0.584,10.816,3.319c1.243,2.344,1.243,5.153,0,7.497l-245.6,465.232
	C233.337,479.607,230.62,481.245,227.659,481.247z M36.155,247.783l176.128,13.816c3.926,0.307,7.045,3.426,7.352,7.352
	l13.84,176.128l220.584-417.88L36.155,247.783z"/>
<g>
</g>
<g>
</g>
<g>
</g>
<g>
</g>
<g>
</g>
<g>
</g>
<g>
</g>
<g>
</g>
<g>
</g>
<g>
</g>
<g>
</g>
<g>
</g>
<g>
</g>
<g>
</g>
<g>
</g>
</svg>
