<?xml version="1.0" encoding="iso-8859-1"?>
<!-- Generator: Adobe Illustrator 19.0.0, SVG Export Plug-In . SVG Version: 6.00 Build 0)  -->
<svg version="1.1" id="Capa_1" xmlns="http://www.w3.org/2000/svg" xmlns:xlink="http://www.w3.org/1999/xlink" x="0px" y="0px"
	 viewBox="0 0 480 480" style="enable-background:new 0 0 480 480;" xml:space="preserve">
<g>
	<path style="fill:#7C84E8;" d="M127.098,472h225.824c8.328,0.004,15.084-6.744,15.088-15.072c0-0.005,0-0.011,0-0.016V424h-256
		v32.912c-0.004,8.328,6.744,15.084,15.072,15.088C127.087,472,127.092,472,127.098,472z"/>
	<path style="fill:#7C84E8;" d="M368.01,23.088C368.014,14.76,361.266,8.004,352.938,8c-0.005,0-0.011,0-0.016,0H127.098
		c-8.328-0.004-15.084,6.744-15.088,15.072c0,0.005,0,0.011,0,0.016V56h256V23.088z"/>
</g>
<path style="fill:#C7CAF5;" d="M112.01,56h256v368h-256V56z"/>
<g>
	<path style="fill:#231F20;" d="M352.922,0H127.098c-12.747,0.009-23.079,10.341-23.088,23.088v433.824
		c0.009,12.747,10.34,23.079,23.088,23.088h225.824c12.747-0.009,23.079-10.341,23.088-23.088V23.088
		C376.001,10.341,365.669,0.009,352.922,0L352.922,0z M127.098,16h225.824c3.915,0,7.088,3.173,7.088,7.088c0,0,0,0,0,0V48h-240
		V23.088C120.01,19.173,123.183,16,127.098,16L127.098,16z M360.01,416h-240V64h240V416z M352.922,464H127.098
		c-3.915,0-7.088-3.173-7.088-7.088l0,0V432h240v24.912C360.01,460.827,356.836,464,352.922,464L352.922,464z"/>
	<path style="fill:#231F20;" d="M200.01,40h32c4.418,0,8-3.582,8-8c0-4.418-3.582-8-8-8h-32c-4.418,0-8,3.582-8,8
		C192.01,36.418,195.592,40,200.01,40z"/>
	<path style="fill:#231F20;" d="M264.01,40h16c4.418,0,8-3.582,8-8c0-4.418-3.582-8-8-8h-16c-4.418,0-8,3.582-8,8
		C256.01,36.418,259.592,40,264.01,40z"/>
	<path style="fill:#231F20;" d="M272.01,456h-64c-4.418,0-8-3.582-8-8s3.582-8,8-8h64c4.418,0,8,3.582,8,8S276.428,456,272.01,456z"
		/>
	<path style="fill:#231F20;" d="M80.498,322.472c-3.107,0-5.934-1.8-7.248-4.616C50.688,269.425,50.236,213.59,72.01,164.8
		c1.775-4.046,6.494-5.887,10.54-4.112s5.887,6.494,4.112,10.54c-0.017,0.039-0.034,0.077-0.052,0.116
		c-19.861,44.536-19.452,95.492,1.12,139.704c1.873,4.001,0.148,8.764-3.853,10.637c-1.048,0.491-2.19,0.748-3.347,0.755
		L80.498,322.472z"/>
	<path style="fill:#231F20;" d="M37.018,342.8c-3.106,0.001-5.931-1.795-7.248-4.608C1.311,277.126,0.742,206.718,28.21,145.2
		c1.807-4.034,6.542-5.839,10.576-4.032s5.839,6.542,4.032,10.576c-25.57,57.269-25.045,122.813,1.44,179.664
		c1.873,4.001,0.148,8.764-3.853,10.637c-1.048,0.491-2.19,0.748-3.347,0.755H37.018z"/>
	<path style="fill:#231F20;" d="M399.522,322.472c-4.418-0.003-7.998-3.587-7.995-8.005c0.001-1.171,0.258-2.327,0.755-3.387
		c20.572-44.212,20.981-95.168,1.12-139.704c-1.816-4.034-0.018-8.776,4.016-10.592c4.034-1.816,8.776-0.018,10.592,4.016
		c21.767,48.78,21.317,104.601-1.232,153.024C405.471,320.655,402.64,322.469,399.522,322.472z"/>
	<path style="fill:#231F20;" d="M443.002,342.8c-4.418-0.003-7.998-3.587-7.995-8.005c0.001-1.171,0.258-2.327,0.755-3.387
		c26.485-56.851,27.01-122.395,1.44-179.664c-1.807-4.034-0.002-8.769,4.032-10.576c4.034-1.807,8.769-0.002,10.576,4.032
		c27.455,61.524,26.871,131.932-1.6,192.992C448.899,340.992,446.093,342.786,443.002,342.8z"/>
</g>
<g>
</g>
<g>
</g>
<g>
</g>
<g>
</g>
<g>
</g>
<g>
</g>
<g>
</g>
<g>
</g>
<g>
</g>
<g>
</g>
<g>
</g>
<g>
</g>
<g>
</g>
<g>
</g>
<g>
</g>
</svg>
