<svg width="54" height="54" viewBox="0 0 54 54" fill="none" xmlns="http://www.w3.org/2000/svg">
<path d="M27 53C12.641 53 1 41.359 1 27C1 12.641 12.641 1 27 1C41.359 1 53 12.641 53 27C53 41.359 41.359 53 27 53Z" fill="#6350AF"/>
<path d="M27 54C12.112 54 0 41.888 0 27C0 12.112 12.112 0 27 0C41.888 0 54 12.112 54 27C54 41.888 41.888 54 27 54ZM27 2C13.215 2 2 13.215 2 27C2 40.785 13.215 52 27 52C40.785 52 52 40.785 52 27C52 13.215 40.785 2 27 2Z" fill="#6350AF"/>
<path d="M27 41.5C26.448 41.5 26 41.053 26 40.5V14.5C26 13.947 26.448 13.5 27 13.5C27.552 13.5 28 13.947 28 14.5V40.5C28 41.053 27.552 41.5 27 41.5Z" fill="white"/>
<path d="M36.293 24.207L27 14.914L17.707 24.207L16.293 22.793L27 12.086L37.707 22.793L36.293 24.207Z" fill="white"/>
</svg>
